{"title":"WWE.Money.in.the.Bank.2016.06.19.HDTV.XviD-FICEK9","uid":15352130,"size":1565053053,"categoryP":"video","categoryS":"tv_shows","magnet":"?xt=urn:btih:6f88c35e0d21dc9bb02848016b42546224141960&amp;dn=WWE.Money.in.the.Bank.2016.06.19.HDTV.XviD-FICEK9&amp;tr=udp%3A%2F%2Ftracker.leechers-paradise.org%3A6969&amp;tr=udp%3A%2F%2Fzer0day.ch%3A1337&amp;tr=udp%3A%2F%2Fopen.demonii.com%3A1337&amp;tr=udp%3A%2F%2Ftracker.coppersurfer.tk%3A6969&amp;tr=udp%3A%2F%2Fexodus.desync.com%3A6969","seeders":0,"leechers":1,"uploader":"FICEK9","files":2,"time":1468950168,"description":"\n   General\r\n      Complete name : WWE.Money.in.the.Bank.2016.06.19.HDTV.XviD-FICEK9.avi\r\n      Format : AVI\r\n      Format/Info : Audio Video Interleave\r\n      Format profile : OpenDML\r\n      File size : 1.46 GiB\r\n      Duration : 3h 23mn\r\n      Overall bit rate mode : Variable\r\n      Overall bit rate : 1 024 Kbps\r\n      Writing application : MEncoder sherpya-r37853+g6d7f566-5.3.1\r\n      Writing library : MPlayer\r\n   Video #0\r\n      ID : 0\r\n      Format : MPEG-4 Visual\r\n      Format profile : Advanced   \r\n      Format settings, BVOP : 2\r\n      Format settings, QPel : No\r\n      Format settings, GMC : No warppoints\r\n      Format settings, Matrix : Default (H.263)\r\n      Codec ID : XVID\r\n      Codec ID/Hint : XviD\r\n      Duration : 3h 23mn\r\n      Bit rate : 878 Kbps\r\n      Width : 624 pixels\r\n      Height : 352 pixels\r\n      Display aspect ratio : 16:9\r\n      Frame rate : 29.970 fps\r\n      Color space : YUV\r\n      Chroma subsampling : 4:2:0\r\n      Bit depth : 8 bits\r\n      Scan type : Progressive\r\n      Compression mode : Lossy\r\n      Bits/(Pixel*Frame) : 0.133\r\n      Stream size : 1.25 GiB (86%)\r\n      Writing library : XviD 64\r\n   Audio #1\r\n      ID : 1\r\n      Format : MPEG Audio\r\n      Format version : Version 1\r\n      Format profile : Layer 3\r\n      Mode : Joint stereo\r\n      Codec ID : 55\r\n      Codec ID/Hint : MP3\r\n      Duration : 3h 23mn\r\n      Bit rate mode : Variable\r\n      Bit rate : 128 Kbps\r\n      Channel(s) : 2 channels\r\n      Sampling rate : 48.0 KHz\r\n      Compression mode : Lossy\r\n      Stream size : 190 MiB (13%)\r\n      Alignment : Aligned on interleaves\r\n      Interleave, duration : 24 ms (0.72 video frame)\r\n      Interleave, preload duration : 496 ms","torrent":{"xt":"urn:btih:6f88c35e0d21dc9bb02848016b42546224141960","amp;dn":"WWE.Money.in.the.Bank.2016.06.19.HDTV.XviD-FICEK9","amp;tr":["udp%3A%2F%2Ftracker.leechers-paradise.org%3A6969","udp%3A%2F%2Fzer0day.ch%3A1337","udp%3A%2F%2Fopen.demonii.com%3A1337","udp%3A%2F%2Ftracker.coppersurfer.tk%3A6969","udp%3A%2F%2Fexodus.desync.com%3A6969"],"infoHash":"6f88c35e0d21dc9bb02848016b42546224141960","infoHashBuffer":{"type":"Buffer","data":[111,136,195,94,13,33,220,155,176,40,72,1,107,66,84,98,36,20,25,96]},"announce":[],"urlList":[]}}